HIERARCHY
ROOT Hips
{
	OFFSET 0.000000 0.000000 0.000000
	CHANNELS 6 Xposition Yposition Zposition Yrotation Xrotation Zrotation
	JOINT Chest
	{
		OFFSET 0.000000 -0.009281 11.569106
		CHANNELS 3 Yrotation Xrotation Zrotation
		JOINT Chest2
		{
			OFFSET -0.000000 0.016865 9.269641
			CHANNELS 3 Yrotation Xrotation Zrotation
			JOINT Chest3
			{
				OFFSET -0.000000 0.000001 8.374491
				CHANNELS 3 Yrotation Xrotation Zrotation
				JOINT Chest4
				{
					OFFSET -0.000000 0.000001 8.374493
					CHANNELS 3 Yrotation Xrotation Zrotation
					JOINT Neck
					{
						OFFSET -0.000000 0.000002 12.152554
						CHANNELS 3 Yrotation Xrotation Zrotation
						JOINT Head
						{
							OFFSET -0.000000 0.040101 7.802319
							CHANNELS 3 Yrotation Xrotation Zrotation
							End Site
							{
								OFFSET -0.000000 0.020947 14.853096
							}
						}
					}
					JOINT RightCollar
					{
						OFFSET 2.894404 0.000001 6.791374
						CHANNELS 3 Yrotation Xrotation Zrotation
						JOINT RightShoulder
						{
							OFFSET 13.574684 0.000001 0.000000
							CHANNELS 3 Yrotation Xrotation Zrotation
							JOINT RightElbow
							{
								OFFSET 23.923903 0.000002 0.000000
								CHANNELS 3 Yrotation Xrotation Zrotation
								JOINT RightWrist
								{
									OFFSET 19.846718 0.012767 0.000000
									CHANNELS 3 Yrotation Xrotation Zrotation
									End Site
									{
										OFFSET 14.973145 0.000001 0.000000
									}
								}
							}
						}
					}
					JOINT LeftCollar
					{
						OFFSET -2.894404 0.000001 6.791374
						CHANNELS 3 Yrotation Xrotation Zrotation
						JOINT LeftShoulder
						{
							OFFSET -13.574684 -0.000001 0.000000
							CHANNELS 3 Yrotation Xrotation Zrotation
							JOINT LeftElbow
							{
								OFFSET -23.923903 -0.000002 0.000000
								CHANNELS 3 Yrotation Xrotation Zrotation
								JOINT LeftWrist
								{
									OFFSET -19.846718 0.012763 0.000000
									CHANNELS 3 Yrotation Xrotation Zrotation
									End Site
									{
										OFFSET -14.973145 -0.000001 0.000000
									}
								}
							}
						}
					}
				}
			}
		}
	}
	JOINT RightHip
	{
		OFFSET 9.469263 0.004643 0.045487
		CHANNELS 3 Yrotation Xrotation Zrotation
		JOINT RightKnee
		{
			OFFSET 0.000000 0.002661 -40.478676
			CHANNELS 3 Yrotation Xrotation Zrotation
			JOINT RightAnkle
			{
				OFFSET 0.000000 0.049106 -35.224068
				CHANNELS 3 Yrotation Xrotation Zrotation
				JOINT RightToe
				{
					OFFSET -0.000001 12.539529 -6.151390
					CHANNELS 3 Yrotation Xrotation Zrotation
					End Site
					{
						OFFSET -0.000001 5.044994 -1.291870
					}
				}
			}
		}
	}
	JOINT LeftHip
	{
		OFFSET -9.469263 0.004641 0.045487
		CHANNELS 3 Yrotation Xrotation Zrotation
		JOINT LeftKnee
		{
			OFFSET 0.000000 0.002661 -40.478676
			CHANNELS 3 Yrotation Xrotation Zrotation
			JOINT LeftAnkle
			{
				OFFSET 0.000000 0.049106 -35.224068
				CHANNELS 3 Yrotation Xrotation Zrotation
				JOINT LeftToe
				{
					OFFSET -0.000001 12.539529 -6.151390
					CHANNELS 3 Yrotation Xrotation Zrotation
					End Site
					{
						OFFSET -0.000001 5.044994 -1.291870
					}
				}
			}
		}
	}
}
MOTION
Frames: 12
Frame Time: 0.016667
76.473564 -17.935061 81.881462 -5.211127 0.902742 -96.161298 -1.310655 -4.855802 -0.284846 -0.617956 -2.213631 -0.196115 -0.617956 -2.213631 -0.196115 -0.464119 -1.660027 -0.149308 7.139418 -21.090234 -10.097630 10.003781 -2.751934 -16.228833 8.136334 1.262723 -2.238472 46.232557 -17.769750 -4.933169 18.011581 -36.723677 42.621043 -26.190768 38.879240 67.667237 -7.619953 2.796600 -3.738754 -44.278972 -8.011292 7.663578 -35.153607 -54.623673 -19.007156 15.502183 14.040418 -57.037141 -14.895625 17.911131 -18.418693 -1.814684 -8.084887 -18.289841 8.120572 -13.964116 19.869536 -0.788793 -4.572229 -0.074856 -11.608385 -6.775010 -3.542590 -2.000366 -3.325160 9.022100 8.653255 4.023915 8.856514 0.111280 -0.090522 -0.010271 
76.573410 -17.947216 81.906288 -5.176319 0.889257 -96.221799 -1.400888 -4.839455 -0.251967 -0.626973 -2.201962 -0.177838 -0.626973 -2.201963 -0.177838 -0.470813 -1.651292 -0.135622 7.169738 -21.184014 -10.121754 10.059205 -2.923208 -16.265453 8.162633 1.213960 -2.259422 46.211352 -17.814566 -4.904060 18.246278 -36.713476 42.487967 -26.231131 38.877785 67.643058 -7.574726 2.722995 -3.744447 -44.284293 -7.950914 7.608260 -35.078796 -54.616484 -19.088891 15.509659 13.975798 -57.029412 -15.094805 18.149329 -19.154019 -2.309753 -7.530004 -19.300139 8.232475 -14.683411 19.916070 -0.856691 -4.014461 -0.160428 -11.594863 -6.847237 -3.610786 -1.997087 -3.242571 8.823768 8.659077 3.943548 9.130878 0.084367 -0.014567 -0.002036 
76.693253 -17.938759 81.922913 -5.194061 0.860903 -96.203392 -1.458474 -4.871619 -0.291329 -0.632295 -2.188920 -0.170980 -0.632295 -2.188920 -0.170980 -0.474776 -1.641516 -0.130487 7.184348 -21.269153 -10.139487 10.087404 -3.079610 -16.294992 8.171434 1.169682 -2.284759 46.184677 -17.837502 -4.890523 18.441944 -36.701755 42.396261 -26.266326 38.851690 67.604113 -7.537382 2.647074 -3.743905 -44.284952 -7.923743 7.550399 -34.962236 -54.624667 -19.227227 15.528131 13.903383 -56.978685 -15.517041 18.180473 -19.853861 -2.463582 -7.149692 -20.527608 8.165186 -15.334465 19.845929 -0.879559 -3.391898 -0.182178 -11.565993 -6.991382 -3.807284 -1.999429 -3.182168 8.634291 8.698648 3.896363 9.326278 0.043958 0.033316 0.000880 
76.812622 -17.953016 81.931183 -5.212686 0.774577 -96.158928 -1.441312 -4.894251 -0.348289 -0.635950 -2.173808 -0.172962 -0.635950 -2.173807 -0.172963 -0.477521 -1.630179 -0.131969 7.189730 -21.348822 -10.153937 10.099461 -3.226530 -16.321212 8.162081 1.128953 -2.315472 46.182071 -17.820419 -4.905696 18.571786 -36.706075 42.326214 -26.282331 38.805221 67.577721 -7.510841 2.563673 -3.750903 -44.253236 -7.914880 7.511000 -34.905518 -54.654477 -19.346600 15.561210 13.846154 -56.894236 -15.830309 18.014831 -20.711370 -2.525395 -6.764811 -21.556574 7.994499 -15.863067 19.576606 -0.880191 -2.795796 -0.116738 -11.463340 -7.129560 -4.000958 -2.029158 -3.145809 8.527891 8.751068 3.912025 9.488857 0.010781 0.039082 0.002369 
76.917625 -17.981083 81.934074 -5.216626 0.695651 -96.114299 -1.417003 -4.895929 -0.398341 -0.642693 -2.160224 -0.179373 -0.642693 -2.160224 -0.179373 -0.482597 -1.619981 -0.136786 7.194383 -21.414137 -10.166529 10.109598 -3.346961 -16.344004 8.164541 1.129717 -2.333297 46.207773 -17.769982 -4.971637 18.629095 -36.731251 42.261225 -26.282986 38.760613 67.571915 -7.495307 2.531084 -3.762660 -44.182609 -7.941542 7.505810 -34.999973 -54.690025 -19.356708 15.582592 13.835117 -56.804139 -16.053296 17.727114 -21.891137 -2.559009 -6.432151 -22.100839 7.855856 -16.185206 19.249428 -0.898801 -2.285529 -0.061059 -11.329075 -7.245758 -4.094699 -2.083504 -3.117172 8.484966 8.774804 3.961382 9.459885 -0.005364 0.034899 0.001930 
77.022316 -18.034760 81.934380 -5.221149 0.647091 -96.074049 -1.403266 -4.894453 -0.443563 -0.651827 -2.148400 -0.188643 -0.651827 -2.148400 -0.188644 -0.489476 -1.611101 -0.143757 7.195148 -21.461931 -10.175889 10.112227 -3.435273 -16.361737 8.156926 1.108845 -2.342475 46.248194 -17.686027 -5.021627 18.646452 -36.760905 42.192886 -26.276911 38.731428 67.578609 -7.497967 2.507610 -3.782248 -44.098915 -7.965055 7.507854 -35.219181 -54.692105 -19.255471 15.604909 13.853398 -56.752595 -16.223784 17.348971 -23.241184 -2.602075 -6.211519 -22.219217 7.795505 -16.294758 18.921629 -0.885055 -1.845361 -0.019490 -11.207470 -7.359899 -4.092101 -2.154736 -3.078369 8.407286 8.786653 4.019583 9.420339 -0.006996 0.023802 0.003237 
77.125725 -18.089214 81.931160 -5.200798 0.644585 -96.062274 -1.418192 -4.870090 -0.466434 -0.662044 -2.138417 -0.199196 -0.662044 -2.138417 -0.199197 -0.497173 -1.603600 -0.151697 7.188734 -21.493781 -10.180945 10.101829 -3.494639 -16.373413 8.145968 1.080243 -2.339063 46.277008 -17.610861 -5.040752 18.655270 -36.782587 42.110804 -26.262649 38.723764 67.591463 -7.514100 2.493837 -3.790378 -44.042067 -8.001473 7.517954 -35.399054 -54.668052 -19.180949 15.619668 13.894963 -56.741715 -16.421173 16.988038 -24.615307 -2.622154 -6.137528 -21.992914 7.794647 -16.300885 18.699180 -0.820641 -1.421618 0.007490 -11.135923 -7.445281 -4.058739 -2.209203 -3.040783 8.247080 8.794806 4.072348 9.485441 -0.011766 0.011867 0.000775 
77.232658 -18.140934 81.923805 -5.172425 0.673358 -96.077375 -1.452048 -4.837319 -0.476046 -0.675115 -2.132188 -0.210461 -0.675115 -2.132188 -0.210462 -0.507012 -1.598912 -0.160185 7.177048 -21.512232 -10.177480 10.083233 -3.529573 -16.370918 8.134984 1.057551 -2.334608 46.282434 -17.581918 -5.011092 18.711641 -36.786829 41.988001 -26.258191 38.729430 67.612446 -7.527859 2.478291 -3.787432 -44.034213 -8.018739 7.543880 -35.457903 -54.638132 -19.193737 15.632227 13.941380 -56.762236 -16.614855 16.658807 -25.898723 -2.668840 -6.175688 -21.612050 7.790515 -16.223262 18.257200 -0.696350 -1.025172 0.023649 -11.113332 -7.507688 -4.038814 -2.245914 -3.025339 8.044420 8.813333 4.123437 9.622937 -0.025040 0.003058 -0.002135 
77.335312 -18.189266 81.913620 -5.131008 0.716902 -96.123008 -1.506863 -4.788462 -0.457044 -0.694136 -2.123520 -0.211238 -0.694136 -2.123520 -0.211239 -0.521277 -1.592403 -0.160824 7.178051 -21.527441 -10.180575 10.085412 -3.557614 -16.376543 8.153837 1.058286 -2.340079 46.291016 -17.592686 -4.990095 18.811097 -36.767779 41.822170 -26.255251 38.739754 67.634630 -7.509854 2.449904 -3.795061 -44.059508 -7.997738 7.553113 -35.446578 -54.616938 -19.239845 15.625473 13.998690 -56.788477 -16.761675 16.351087 -26.963316 -2.732919 -6.214529 -21.378835 7.734534 -16.180863 17.858146 -0.555790 -0.654716 0.035902 -11.117192 -7.543474 -4.033669 -2.263929 -3.026559 7.920352 8.820950 4.191434 9.721979 -0.039071 -0.006151 -0.004127 
77.432472 -18.247244 81.903404 -5.091921 0.769220 -96.185545 -1.572003 -4.738497 -0.428793 -0.716349 -2.110877 -0.204432 -0.716349 -2.110877 -0.204433 -0.537907 -1.582921 -0.155783 7.185707 -21.543392 -10.186961 10.098739 -3.586562 -16.386225 8.168182 1.025392 -2.347634 46.321284 -17.610121 -4.949016 18.905371 -36.726340 41.649718 -26.252051 38.753725 67.650660 -7.493929 2.432983 -3.790241 -44.066270 -7.962150 7.549386 -35.454638 -54.589566 -19.274681 15.617914 14.029938 -56.799051 -16.885746 15.990661 -27.887835 -2.757019 -6.158432 -21.306623 7.668909 -16.225244 17.831580 -0.458555 -0.342000 0.035822 -11.133151 -7.565203 -3.985349 -2.276597 -3.043907 7.894859 8.814100 4.286384 9.759188 -0.049342 -0.015418 -0.001257 
77.523613 -18.307287 81.894806 -5.070483 0.821488 -96.261968 -1.641151 -4.688509 -0.393203 -0.738371 -2.094713 -0.191616 -0.738372 -2.094714 -0.191616 -0.554374 -1.570807 -0.146227 7.195449 -21.568351 -10.197800 10.115310 -3.632040 -16.403565 8.176402 1.008978 -2.358156 46.365718 -17.655950 -4.935259 18.996636 -36.685994 41.479182 -26.254701 38.765019 67.663809 -7.505398 2.460449 -3.792353 -44.041261 -7.933622 7.593751 -35.486074 -54.571121 -19.299842 15.608966 14.023999 -56.796192 -17.002752 15.573658 -28.713022 -2.722848 -6.008126 -21.446292 7.513734 -16.263439 17.609023 -0.371503 -0.124397 0.029843 -11.143110 -7.603209 -3.937571 -2.293733 -3.061423 7.899279 8.804768 4.385209 9.710495 -0.060197 -0.022477 0.000769 
77.620483 -18.379625 81.887054 -5.073384 0.850491 -96.352365 -1.694729 -4.640133 -0.353635 -0.758927 -2.075961 -0.177146 -0.758928 -2.075961 -0.177146 -0.569735 -1.556754 -0.135424 7.202884 -21.603489 -10.208577 10.128588 -3.696479 -16.421663 8.184955 0.997414 -2.362018 46.394449 -17.696255 -4.941972 19.104942 -36.674923 41.313646 -26.277640 38.770394 67.657593 -7.520376 2.492435 -3.781441 -44.016550 -7.881882 7.655053 -35.490008 -54.597199 -19.331286 15.603250 14.012540 -56.785264 -17.032240 15.128627 -29.356525 -2.697973 -5.783147 -21.823100 7.318000 -16.348223 17.730715 -0.298220 0.032694 0.035036 -11.138090 -7.662738 -3.969364 -2.313729 -3.085882 7.912931 8.804051 4.487176 9.798977 -0.070319 -0.033020 0.002819 
